<?xml version="1.0" encoding="UTF-8"?>
<svg id="Layer_1" data-name="Layer 1" xmlns="http://www.w3.org/2000/svg" viewBox="0 0 222 222">
  <defs>
    <style>
      .cls-1 {
        fill: none;
      }

      .cls-2 {
        fill: #1a1a1a;
      }
    </style>
  </defs>
  <rect fill='none' x=".69" y=".37" width="222" height="222"/>
  <g>
    <path fill='currentColor' d="m148.6,140.69c4.26-2.46,6.9-7.04,6.91-11.95h0v-34.64c0-4.92-2.65-9.5-6.93-11.97l-30.28-17.3c-4.26-2.46-9.56-2.46-13.8-.01l-30.32,17.33c-4.26,2.46-6.9,7.04-6.91,11.96v34.64c0,4.91,2.65,9.49,6.93,11.96l30.28,17.3c2.02,1.17,4.27,1.76,6.54,1.82.12,0,.24.04.37.04.12,0,.23-.03.35-.04,2.27-.06,4.52-.65,6.54-1.81l30.32-17.33Zm-5.14-8.95l-26.91,15.38v-32.71l28.64-16.44v30.76c0,1.24-.67,2.4-1.73,3.01Zm-33.82-57.97c.54-.31,1.14-.47,1.74-.47s1.22.16,1.77.48l26.78,15.3-28.54,16.39-28.54-16.39,26.8-15.31Zm-30.3,57.98c-1.08-.62-1.75-1.78-1.75-3.02v-30.77l28.64,16.44v32.71l-26.89-15.36Z"/>
    <path fill='currentColor' d="m79.76,148.37l-25.83-14.76c-3.87-2.23-8.68-2.23-12.53-.01l-25.87,14.78c-3.86,2.23-6.27,6.39-6.27,10.86v29.55c0,4.46,2.41,8.62,6.29,10.86l25.83,14.76c1.83,1.06,3.88,1.6,5.93,1.65.12,0,.23.03.34.03.11,0,.21-.03.32-.03,2.06-.05,4.1-.59,5.93-1.64l25.87-14.78c3.86-2.23,6.27-6.39,6.27-10.85h0v-29.56c0-4.46-2.41-8.62-6.29-10.86Zm-33.21-5.82c.34-.2.72-.3,1.11-.3s.78.1,1.14.31l21.69,12.39-22.82,13.1-22.82-13.1,21.71-12.41Zm-25.84,48.15c-.69-.4-1.11-1.13-1.11-1.92v-24.93l22.91,13.15v26.16l-21.8-12.46Zm53.94-.01l-21.82,12.47v-26.16l22.91-13.15v24.93c0,.79-.43,1.53-1.09,1.91Z"/>
    <path fill='currentColor' d="m207.82,148.37l-25.82-14.76c-3.87-2.24-8.68-2.24-12.53-.01l-25.87,14.78c-3.86,2.23-6.27,6.39-6.27,10.86v29.54c0,4.46,2.41,8.62,6.29,10.86l25.83,14.76c1.83,1.06,3.88,1.6,5.93,1.65.12,0,.23.03.34.03.11,0,.21-.03.32-.03,2.06-.05,4.1-.59,5.93-1.65l25.87-14.78c3.87-2.23,6.27-6.39,6.27-10.85h0v-29.55c0-4.46-2.41-8.62-6.29-10.86Zm-33.21-5.82c.34-.2.72-.3,1.1-.3s.78.1,1.14.31l21.69,12.4-22.82,13.1-22.82-13.1,21.71-12.41Zm-25.85,48.15c-.69-.4-1.11-1.13-1.11-1.92v-24.93l22.91,13.15v26.16l-21.8-12.45Zm53.94-.01l-21.82,12.47v-26.16l22.91-13.15v24.93c0,.79-.43,1.53-1.09,1.91Z"/>
    <path fill='currentColor' d="m15.56,74.36l25.83,14.76c1.83,1.06,3.88,1.6,5.93,1.65.12,0,.23.03.34.03.11,0,.21-.03.32-.03,2.06-.05,4.1-.59,5.93-1.64l25.87-14.78c3.86-2.23,6.27-6.39,6.27-10.85h0v-29.56c0-4.46-2.41-8.62-6.29-10.86l-25.83-14.76c-3.87-2.23-8.67-2.23-12.53-.01l-25.87,14.78c-3.86,2.23-6.26,6.39-6.27,10.86v29.55c0,4.46,2.41,8.62,6.29,10.86Zm5.14-8.95c-.69-.4-1.11-1.13-1.11-1.92v-24.93l22.91,13.15v26.16l-21.8-12.46Zm53.94-.01l-21.82,12.47v-26.16l22.91-13.15v24.93c0,.79-.43,1.53-1.09,1.91Zm-28.09-48.13c.34-.2.72-.3,1.11-.3s.78.1,1.14.31l21.69,12.39-22.82,13.1-22.82-13.1,21.71-12.41Z"/>
    <path fill='currentColor' d="m207.82,23.08l-25.83-14.76c-3.87-2.23-8.68-2.23-12.53-.01l-25.87,14.78c-3.86,2.23-6.27,6.39-6.27,10.86v29.54c0,4.46,2.41,8.62,6.29,10.86l25.83,14.76c1.84,1.06,3.89,1.6,5.95,1.66.11,0,.21.03.32.03.1,0,.19-.02.29-.03,2.07-.05,4.13-.59,5.96-1.65l25.86-14.78c3.87-2.23,6.27-6.39,6.28-10.85h0v-29.55c0-4.46-2.41-8.62-6.29-10.86Zm-33.21-5.82c.34-.2.72-.3,1.11-.3s.78.1,1.14.31l21.69,12.4-22.82,13.1-22.82-13.1,21.71-12.41Zm-25.85,48.15c-.69-.4-1.11-1.13-1.11-1.92v-24.93l22.91,13.15v26.16l-21.8-12.46Zm53.94-.01l-21.82,12.47v-26.16l22.91-13.15v24.93c0,.79-.43,1.53-1.09,1.91Z"/>
  </g>
</svg>