<?xml version="1.0" encoding="UTF-8"?>
<svg id="Layer_1" data-name="Layer 1" xmlns="http://www.w3.org/2000/svg" viewBox="0 0 222 222">
  <defs>
    <style>
      .cls-1 {
        fill: none;
      }

      .cls-2 {
        fill: #1a1a1a;
      }
    </style>
  </defs>
  <rect fill='none' x=".25" y="-.25" width="222" height="222"/>
  <path fill='currentColor' d="m188.7,68.73h-20.95v-19.19c0-4.96-4.02-8.98-8.98-8.98h-24.47v-19.59c0-4.96-4.02-8.98-8.98-8.98H33.8c-4.96,0-8.98,4.02-8.98,8.98v122.82c0,4.96,4.02,8.98,8.98,8.98h24.47v19.59c0,4.96,4.02,8.98,8.98,8.98h20.95v19.19c0,4.96,4.02,8.98,8.98,8.98h91.53c4.96,0,8.98-4.02,8.98-8.98v-122.82c0-4.96-4.02-8.98-8.98-8.98ZM42.78,29.95h73.58v104.86H42.78V29.95Zm33.44,122.82h49.11c4.96,0,8.98-4.02,8.98-8.98V58.52h15.49v104.86h-73.58v-10.61Zm103.5,38.77h-73.58v-10.21h52.63c4.96,0,8.98-4.02,8.98-8.98v-85.67h11.97v104.86Z"/>
</svg>