<?xml version="1.0" encoding="UTF-8"?>
<svg id="Layer_1" data-name="Layer 1" xmlns="http://www.w3.org/2000/svg" viewBox="0 0 222 222">
  <defs>
    <style>
      .cls-1 {
        fill: none;
      }

      .cls-2 {
        fill: #1a1a1a;
      }
    </style>
  </defs>
  <rect fill='none' x=".38" y=".37" width="222" height="222"/>
  <g>
    <path fill='currentColor' d="m111.38,6.81C53.72,6.81,6.82,53.71,6.82,111.37s46.91,104.56,104.56,104.56,104.56-46.91,104.56-104.56S169.04,6.81,111.38,6.81Zm0,190.11c-47.17,0-85.55-38.38-85.55-85.55S64.21,25.82,111.38,25.82s85.55,38.38,85.55,85.55-38.38,85.55-85.55,85.55Z"/>
    <path fill='currentColor' d="m111.37,134.76c6.18,0,11.18-5.01,11.18-11.18V56.16c0-6.18-5.01-11.18-11.18-11.18s-11.18,5.01-11.18,11.18v67.42c0,6.18,5.01,11.18,11.18,11.18Z"/>
    <path fill='currentColor' d="m111.48,151.21h-.11c-6.18,0-11.13,5.01-11.13,11.18s5.06,11.18,11.24,11.18,11.18-5.01,11.18-11.18-5.01-11.18-11.18-11.18Z"/>
  </g>
</svg>