<?xml version="1.0" encoding="UTF-8"?>
<svg id="Layer_1" data-name="Layer 1" xmlns="http://www.w3.org/2000/svg" viewBox="0 0 222 222">
  <defs>
    <style>
      .cls-1 {
        fill: none;
      }

      .cls-2 {
        fill: #1a1a1a;
      }
    </style>
  </defs>
  <rect fill='none' x=".5" y=".4" width="222" height="222"/>
  <g>
    <path fill='currentColor' d="m183.25,23H39.75c-16.21,0-29.39,13.19-29.39,29.39v92.23c0,16.21,13.19,29.39,29.39,29.39h84.06l-2.96,16.27c-.51,2.81.5,5.67,2.65,7.54s5.13,2.47,7.84,1.56l21.67-7.22,21.67,7.22c.84.28,1.7.41,2.55.41,1.92,0,3.8-.68,5.29-1.97,2.15-1.87,3.16-4.74,2.65-7.54l-2.96-16.27h1.02c16.21,0,29.39-13.19,29.39-29.39V52.39c0-16.21-13.19-29.39-29.39-29.39Zm-30.22,120.28c-8.9,0-16.15-7.24-16.15-16.15s7.24-16.15,16.15-16.15,16.15,7.24,16.15,16.15-7.24,16.15-16.15,16.15Zm2.55,32.71c-1.66-.55-3.45-.55-5.11,0l-11.29,3.76,3.98-21.88c3.11,1,6.42,1.55,9.86,1.55s6.75-.55,9.86-1.55l3.98,21.88-11.29-3.76Zm41.22-31.37c0,7.47-6.08,13.55-13.55,13.55h-3.9l-1.83-10.05c4.85-5.65,7.8-12.97,7.8-20.98,0-17.81-14.49-32.3-32.3-32.3s-32.3,14.49-32.3,32.3c0,8.01,2.95,15.34,7.8,20.99l-1.83,10.05H39.75c-7.47,0-13.55-6.08-13.55-13.55V52.39c0-7.47,6.08-13.55,13.55-13.55h143.49c7.47,0,13.55,6.08,13.55,13.55v92.23Z"/>
    <path fill='currentColor' d="m179.45,51.57H47.02c-4.22,0-7.63,3.42-7.63,7.63s3.42,7.63,7.63,7.63h132.43c4.22,0,7.63-3.42,7.63-7.63s-3.42-7.63-7.63-7.63Z"/>
    <path fill='currentColor' d="m112.78,77.21H47.02c-4.22,0-7.63,3.42-7.63,7.63s3.42,7.63,7.63,7.63h65.76c4.22,0,7.63-3.42,7.63-7.63s-3.42-7.63-7.63-7.63Z"/>
    <path fill='currentColor' d="m92.6,102.84h-45.57c-4.22,0-7.63,3.42-7.63,7.63s3.42,7.63,7.63,7.63h45.57c4.22,0,7.63-3.42,7.63-7.63s-3.42-7.63-7.63-7.63Z"/>
    <path fill='currentColor' d="m92.6,129.25h-45.57c-4.22,0-7.63,3.42-7.63,7.63s3.42,7.63,7.63,7.63h45.57c4.22,0,7.63-3.42,7.63-7.63s-3.42-7.63-7.63-7.63Z"/>
  </g>
</svg>