<?xml version="1.0" encoding="UTF-8"?>
<svg id="Layer_1" data-name="Layer 1" xmlns="http://www.w3.org/2000/svg" viewBox="0 0 222 222">
  <defs>
    <style>
      .cls-1 {
        fill: none;
      }

      .cls-2 {
        fill: #1a1a1a;
      }
    </style>
  </defs>
  <rect fill='none' x="0" width="222" height="222"/>
  <g>
    <path fill='currentColor' d="m211.51,195.95l-37.47-37.47c12.56-15.91,20.09-35.98,20.09-57.78,0-51.52-41.91-93.43-93.43-93.43S7.26,49.18,7.26,100.7s41.91,93.43,93.43,93.43c21.8,0,41.87-7.53,57.78-20.09l37.47,37.47c2.15,2.15,4.97,3.22,7.78,3.22s5.63-1.07,7.78-3.22c4.3-4.3,4.3-11.27,0-15.56ZM29.27,100.7c0-39.38,32.04-71.42,71.42-71.42s71.42,32.04,71.42,71.42-32.04,71.42-71.42,71.42S29.27,140.08,29.27,100.7Z"/>
    <path fill='currentColor' d="m129.3,62.56c-10.68-2.89-21.1-.28-29.07,6.85-7.93-6.96-18.33-9.46-29.03-6.56-15.58,4.22-26.46,18.68-26.46,35.18,0,30.53,46.68,52.24,52,54.61,1.12.5,2.32.75,3.52.75s2.4-.25,3.52-.75c5.32-2.37,52-24.08,52-54.61,0-16.66-10.89-31.25-26.48-35.47Zm-29.03,72.64c-12.83-6.45-38.26-22.27-38.26-37.17,0-10.17,7.1-16.73,13.7-18.52.97-.26,2.37-.54,4.01-.54,3.88,0,9.11,1.53,13.09,8.33,1.55,2.65,4.39,4.28,7.45,4.28s5.9-1.63,7.45-4.28c5.58-9.55,13.09-9.16,17.07-8.09,6.61,1.79,13.73,8.44,13.73,18.81,0,14.9-25.43,30.73-38.26,37.17Z"/>
  </g>
</svg>