<svg width="230" height="16" viewBox="0 0 230 16" xmlns="http://www.w3.org/2000/svg" xmlns:xlink="http://www.w3.org/1999/xlink">
    <defs>
        <path id="ygjdhigqwb" d="M0 0h19.226v15.124H0z"/>
        <path id="d48dxn13nd" d="M0 0h11.684v15.98H0z"/>
        <path id="t0hjq8hv7f" d="M0 0h14.074v15.756H0z"/>
        <filter x="-.7%" y="-9.4%" width="101.3%" height="126.2%" filterUnits="objectBoundingBox" id="c1277x5wca">
            <feOffset dy="3" in="SourceAlpha" result="shadowOffsetOuter1"/>
            <feGaussianBlur stdDeviation="3" in="shadowOffsetOuter1" result="shadowBlurOuter1"/>
            <feColorMatrix values="0 0 0 0 0 0 0 0 0 0 0 0 0 0 0 0 0 0 0.299688593 0" in="shadowBlurOuter1" result="shadowMatrixOuter1"/>
            <feMerge>
                <feMergeNode in="shadowMatrixOuter1"/>
                <feMergeNode in="SourceGraphic"/>
            </feMerge>
        </filter>
    </defs>
    <g transform="translate(-40 -32)" filter="url(#c1277x5wca)" fill="none" fill-rule="evenodd">
        <path fill="#1A1A1A" d="M219.508 33v5.527H214v4.036h5.508V48h3.984v-5.437H229v-4.036h-5.508V33zM233 36.138l4.356 4.356-4.227 4.227 3.15 3.15 4.227-4.227L244.862 48 248 44.862l-4.356-4.356 4.298-4.298-3.15-3.15-4.298 4.298L236.138 33z"/>
        <g transform="translate(250.774 32.663)">
            <mask id="vskeapkg5c" fill="#fff">
                <use xlink:href="#ygjdhigqwb"/>
            </mask>
            <path d="M19.227 5.664c0 5.225-9.614 9.46-9.614 9.46S0 10.889 0 5.664c0-5.225 6.727-7.93 9.613-3.052 2.96-5.002 9.614-2.173 9.614 3.052" fill="#1A1A1A" mask="url(#vskeapkg5c)"/>
        </g>
        <g transform="translate(40 32.02)">
            <mask id="a9eqdatcue" fill="#fff">
                <use xlink:href="#d48dxn13nd"/>
            </mask>
            <path d="M9.92 10.993c0 1.573-.52 2.798-1.56 3.673-1.042.876-2.493 1.313-4.356 1.313-.779 0-1.515-.087-2.21-.26-.693-.174-1.291-.427-1.794-.76v-3.722a9.273 9.273 0 0 0 2.045.947c.768.255 1.464.382 2.087.382.524 0 .92-.11 1.19-.329.269-.22.403-.532.403-.936 0-.191-.043-.37-.128-.537a2.213 2.213 0 0 0-.36-.5c-.156-.166-.574-.532-1.254-1.1-.829-.666-1.43-1.346-1.806-2.041a4.726 4.726 0 0 1-.562-2.285c0-.929.231-1.764.695-2.504C2.774 1.593 3.43 1.019 4.275.61 5.121.204 6.068 0 7.116 0c1.693 0 3.215.38 4.568 1.138L10.25 4.295c-1.21-.624-2.241-.935-3.091-.935-.453 0-.802.1-1.046.297-.245.199-.367.49-.367.872 0 .347.119.672.356.973.237.302.689.703 1.354 1.207.836.616 1.456 1.265 1.86 1.945.403.68.605 1.46.605 2.339" fill="#1A1A1A" mask="url(#a9eqdatcue)"/>
        </g>
        <g transform="translate(52.788 32.244)">
            <mask id="d9moxo6wag" fill="#fff">
                <use xlink:href="#t0hjq8hv7f"/>
            </mask>
            <path d="M14.074 0 11.96 9.909c-.418 1.991-1.215 3.464-2.39 4.417-1.175.953-2.772 1.43-4.79 1.43-.95 0-1.787-.195-2.513-.585A4.106 4.106 0 0 1 .59 13.534C.196 12.832 0 12.049 0 11.184c0-.453.042-.91.127-1.37L2.241 0h4.153L4.323 9.707c-.1.482-.149.89-.149 1.222 0 .9.428 1.35 1.285 1.35.666 0 1.188-.228 1.567-.685.379-.457.667-1.157.866-2.1L9.92 0h4.153z" fill="#1A1A1A" mask="url(#d9moxo6wag)"/>
        </g>
        <path d="M73.023 39.229h.669c.644 0 1.165-.207 1.561-.622.397-.415.595-.94.595-1.579 0-.418-.127-.755-.382-1.01s-.605-.382-1.052-.382h-.626l-.765 3.593zm6.979-2.329c0 1.787-.608 3.189-1.822 4.205-1.215 1.018-2.877 1.526-4.987 1.526h-.914l-1.062 5.156h-4.153l3.282-15.543h3.962c1.834 0 3.241.403 4.222 1.207.98.804 1.472 1.954 1.472 3.45zM89.837 47.787h-9.22L83.9 32.244h9.22l-.69 3.37h-5.067l-.5 2.446h4.717l-.765 3.37h-4.716l-.605 2.934h5.066zM98.865 38.974h.542c.672 0 1.207-.193 1.604-.58.396-.386.595-.926.595-1.62 0-.44-.123-.775-.367-1.005-.244-.23-.6-.346-1.067-.346h-.564l-.743 3.55zm-.669 3.157-1.2 5.656h-4.153l3.282-15.543h4.11c1.785 0 3.151.354 4.1 1.063.95.709 1.423 1.776 1.423 3.2 0 1.106-.251 2.07-.754 2.892-.502.822-1.25 1.45-2.24 1.882l2.378 5.486.425 1.02h-4.525l-2.07-5.656h-.776zM116.784 47.787h-4.153l3.282-15.543h9.156l-.712 3.37h-5.002l-.617 2.967h4.631l-.732 3.391h-4.653zM130.529 41.557h3.111l-.18-4.507-.021-.915c0-.531.014-.995.042-1.392-.17.61-.386 1.198-.648 1.764l-2.304 5.05zm3.24 3.317h-4.76l-1.327 2.913h-4.312l7.902-15.543h5.343l1.306 15.543h-4.047l-.106-2.913zM153.365 47.787h-4.833l-3.07-10.929h-.084c-.206 2.063-.408 3.544-.606 4.444l-1.37 6.485h-3.696l3.282-15.543h4.833l3.037 10.45h.096c.205-1.672.407-2.986.605-3.944l1.392-6.506h3.696l-3.282 15.543zM162.52 44.343c.78 0 1.475-.248 2.088-.744.612-.497 1.088-1.204 1.428-2.121.34-.918.51-1.965.51-3.142 0-.886-.19-1.558-.573-2.015-.383-.457-.917-.685-1.604-.685h-.754l-1.827 8.707h.733zm8.222-6.22c0 1.985-.35 3.705-1.052 5.162-.7 1.457-1.719 2.571-3.053 3.343-1.335.773-2.916 1.16-4.743 1.16h-5.003l3.282-15.544h4.419c1.954 0 3.468.512 4.54 1.536 1.073 1.024 1.61 2.472 1.61 4.343zM182.585 38.028c0-.808-.17-1.44-.51-1.898-.34-.457-.832-.686-1.476-.686-.701 0-1.346.298-1.933.893-.588.596-1.057 1.414-1.408 2.456a9.968 9.968 0 0 0-.525 3.2c0 1.715.707 2.573 2.124 2.573.673 0 1.297-.294 1.875-.882.577-.589 1.03-1.383 1.36-2.382.329-1 .493-2.09.493-3.274M180.95 32c1.842 0 3.274.526 4.297 1.578 1.023 1.053 1.535 2.522 1.535 4.407 0 1.885-.353 3.61-1.057 5.172-.705 1.563-1.677 2.761-2.916 3.594-1.239.833-2.677 1.249-4.312 1.249-1.905 0-3.376-.528-4.413-1.584-1.038-1.056-1.557-2.523-1.557-4.402 0-1.878.365-3.604 1.094-5.177.73-1.573 1.723-2.773 2.98-3.599 1.257-.825 2.707-1.238 4.35-1.238M193.695 47.787V36.635h-.084c-.475 2.955-.78 4.77-.914 5.443l-1.2 5.71H187.8l3.282-15.544h5.503V43.28h.084l5.078-11.036h5.587l-3.325 15.543h-3.728l1.242-5.836a85.607 85.607 0 0 1 1.148-4.636l.16-.68h-.086l-5.12 11.152h-3.93z" fill="#1A1A1A"/>
    </g>
</svg>
