<?xml version="1.0" encoding="UTF-8"?>
<svg id="Layer_1" data-name="Layer 1" xmlns="http://www.w3.org/2000/svg" viewBox="0 0 222 222">
  <defs>
    <style>
      .cls-1 {
        fill: none;
      }

      .cls-2 {
        fill: #1a1a1a;
      }
    </style>
  </defs>
  <rect fill='none' x=".44" y=".37" width="222" height="222"/>
  <g>
    <path fill='currentColor' d="m111.58,104.1c20.45,0,37.09-16.64,37.09-37.09s-16.64-37.09-37.09-37.09-37.09,16.64-37.09,37.09,16.64,37.09,37.09,37.09Zm0-59.34c12.27,0,22.25,9.98,22.25,22.25s-9.98,22.25-22.25,22.25-22.25-9.98-22.25-22.25,9.98-22.25,22.25-22.25Z"/>
    <path fill='currentColor' d="m187.97,132.82h-25.22c-1.56-1.95-3.33-3.76-5.29-5.38-6.63-5.49-15.02-8.51-23.64-8.51h-44.51c-11.68,0-22.1,5.43-28.91,13.89h-25.5c-14.63,0-26.54,11.91-26.54,26.54v24.62c0,3.53,2.86,6.4,6.4,6.4s6.4-2.86,6.4-6.4v-24.62c0-7.58,6.17-13.75,13.75-13.75h18.82c-.97,3.31-1.5,6.8-1.5,10.41v29.38c0,4.1,3.32,7.42,7.42,7.42s7.42-3.32,7.42-7.42v-29.38c0-12.27,9.98-22.25,22.25-22.25h44.51c5.17,0,10.2,1.81,14.18,5.1,5.13,4.25,8.08,10.5,8.08,17.16v29.38c0,4.1,3.32,7.42,7.42,7.42s7.42-3.32,7.42-7.42v-29.38c0-3.57-.52-7.07-1.49-10.41h18.54c7.58,0,13.75,6.17,13.75,13.75v24.62c0,3.53,2.86,6.4,6.4,6.4s6.4-2.86,6.4-6.4v-24.62c0-14.63-11.91-26.54-26.54-26.54Z"/>
    <path fill='currentColor' d="m175.78,125.47c14.63,0,26.54-11.91,26.54-26.54s-11.91-26.54-26.54-26.54-26.54,11.91-26.54,26.54,11.91,26.54,26.54,26.54Zm0-40.29c7.58,0,13.75,6.17,13.75,13.75s-6.17,13.75-13.75,13.75-13.75-6.17-13.75-13.75,6.17-13.75,13.75-13.75Z"/>
    <path fill='currentColor' d="m47.11,125.47c14.63,0,26.54-11.91,26.54-26.54s-11.91-26.54-26.54-26.54-26.54,11.91-26.54,26.54,11.91,26.54,26.54,26.54Zm0-40.29c7.58,0,13.75,6.17,13.75,13.75s-6.17,13.75-13.75,13.75-13.75-6.17-13.75-13.75,6.17-13.75,13.75-13.75Z"/>
  </g>
</svg>