<?xml version="1.0" encoding="UTF-8"?>
<svg id="Layer_1" data-name="Layer 1" xmlns="http://www.w3.org/2000/svg" viewBox="0 0 222 222">
  <defs>
    <style>
      .cls-1 {
        fill: none;
      }

      .cls-2 {
        fill: #1a1a1a;
      }
    </style>
  </defs>
  <rect class="cls-1" x=".38" y=".37" width="222" height="222"/>
  <g>
    <path class="cls-2" d="m111.38,215.93c57.66,0,104.56-46.91,104.56-104.56S169.04,6.81,111.38,6.81,6.82,53.71,6.82,111.37s46.91,104.56,104.56,104.56Zm0-190.11c47.17,0,85.55,38.38,85.55,85.55s-38.38,85.55-85.55,85.55S25.83,158.54,25.83,111.37,64.21,25.82,111.38,25.82Z"/>
    <path class="cls-2" d="m111.39,87.98c-6.18,0-11.18,5.01-11.18,11.18v67.42c0,6.18,5.01,11.18,11.18,11.18s11.18-5.01,11.18-11.18v-67.42c0-6.18-5.01-11.18-11.18-11.18Z"/>
    <path class="cls-2" d="m111.28,71.53h.11c6.18,0,11.13-5.01,11.13-11.18s-5.06-11.18-11.24-11.18-11.18,5.01-11.18,11.18,5.01,11.18,11.18,11.18Z"/>
  </g>
</svg>