<?xml version="1.0" encoding="UTF-8"?>
<svg id="Layer_1" data-name="Layer 1" xmlns="http://www.w3.org/2000/svg" viewBox="0 0 222 222">
  <defs>
    <style>
      .cls-1 {
        fill: none;
      }

      .cls-2 {
        fill: #1a1a1a;
      }
    </style>
  </defs>
  <rect class="cls-1" x="-.34" y=".37" width="222" height="222"/>
  <g>
    <path class="cls-2" d="m205.5,149.26h-19V45.05c0-15.67-12.79-28.42-28.5-28.42H34.5c-15.71,0-28.5,12.75-28.5,28.42v28.42c0,5.23,4.25,9.47,9.5,9.47h28.5v94.74c0,15.67,12.79,28.42,28.5,28.42h114c15.72,0,28.5-12.75,28.5-28.42v-18.95c0-5.23-4.25-9.47-9.5-9.47ZM44,64h-19v-18.95c0-5.22,4.26-9.47,9.5-9.47s9.5,4.25,9.5,9.47v18.95Zm38,94.74v18.95c0,5.22-4.26,9.47-9.5,9.47s-9.5-4.25-9.5-9.47V45.05c0-3.33-.61-6.51-1.66-9.47h96.66c5.24,0,9.5,4.25,9.5,9.47v104.21h-76c-5.25,0-9.5,4.24-9.5,9.47Zm114,18.95c0,5.22-4.26,9.47-9.5,9.47h-87.13c1.05-2.96,1.63-6.15,1.63-9.47v-9.47h95v9.47Z"/>
    <path class="cls-2" d="m139,64h-47.5c-5.25,0-9.5,4.24-9.5,9.47s4.25,9.47,9.5,9.47h47.5c5.25,0,9.5-4.24,9.5-9.47s-4.25-9.47-9.5-9.47Z"/>
    <path class="cls-2" d="m139,101.9h-47.5c-5.25,0-9.5,4.24-9.5,9.47s4.25,9.47,9.5,9.47h47.5c5.25,0,9.5-4.24,9.5-9.47s-4.25-9.47-9.5-9.47Z"/>
  </g>
</svg>