<?xml version="1.0" encoding="UTF-8"?>
<svg id="Layer_1" data-name="Layer 1" xmlns="http://www.w3.org/2000/svg" viewBox="0 0 222 222">
  <defs>
    <style>
      .cls-1 {
        fill: none;
      }

      .cls-2 {
        fill: #1a1a1a;
      }
    </style>
  </defs>
  <rect class="cls-1" x="-.26" y="0" width="222" height="222"/>
  <g>
    <path class="cls-2" d="m141.64,131.6h-61.8c-28.4,0-51.5,23.1-51.5,51.5v20.6c0,5.69,4.61,10.3,10.3,10.3s10.3-4.61,10.3-10.3v-20.6c0-17.04,13.86-30.9,30.9-30.9h61.8c17.04,0,30.9,13.86,30.9,30.9v20.6c0,5.69,4.61,10.3,10.3,10.3s10.3-4.61,10.3-10.3v-20.6c0-28.4-23.1-51.5-51.5-51.5Z"/>
    <path class="cls-2" d="m110.74,111c28.4,0,51.5-23.1,51.5-51.5s-23.1-51.5-51.5-51.5-51.5,23.1-51.5,51.5,23.1,51.5,51.5,51.5Zm0-82.4c17.04,0,30.9,13.86,30.9,30.9s-13.86,30.9-30.9,30.9-30.9-13.86-30.9-30.9,13.86-30.9,30.9-30.9Z"/>
  </g>
</svg>