<?xml version="1.0" encoding="UTF-8"?>
<svg id="Layer_1" data-name="Layer 1" xmlns="http://www.w3.org/2000/svg" viewBox="0 0 222 222">
  <defs>
    <style>
      .cls-1 {
        fill: none;
      }

      .cls-2 {
        fill: #1a1a1a;
      }
    </style>
  </defs>
  <rect class="cls-1" x=".4" y="-.05" width="222" height="222"/>
  <path class="cls-2" d="m201.6,101.46v-37.98c0-5.24-4.25-9.5-9.5-9.5h-9.49v-28.49c0-5.24-4.25-9.5-9.5-9.5H40.18c-15.71,0-28.49,12.78-28.49,28.49v132.93c0,15.71,12.78,28.49,28.49,28.49h151.92c5.24,0,9.5-4.25,9.5-9.5v-37.98c5.24,0,9.5-4.25,9.5-9.5v-37.98c0-5.24-4.25-9.5-9.5-9.5Zm-37.98,37.98c-5.24,0-9.49-4.26-9.49-9.5s4.26-9.5,9.49-9.5h28.49v18.99h-28.49ZM40.18,34.99h123.44v18.99H40.18c-5.24,0-9.49-4.26-9.49-9.5s4.26-9.5,9.49-9.5Zm142.43,151.92H40.18c-5.24,0-9.49-4.26-9.49-9.5v-106.11c2.97,1.06,6.16,1.66,9.49,1.66h142.43v28.49h-18.99c-15.71,0-28.49,12.78-28.49,28.49s12.78,28.49,28.49,28.49h18.99v28.49Z"/>
</svg>