<svg width="344.828" height="250" viewBox="0 0 344.828 250" xmlns="http://www.w3.org/2000/svg" xmlns:xlink="http://www.w3.org/1999/xlink">
    <defs>
        <path id="sk7v8yq03a" d="M0 0h344.828v250H0z"/>
    </defs>
    <g fill="none" fill-rule="evenodd">
        <mask id="xjw2mv16nb" fill="#fff">
            <use xlink:href="#sk7v8yq03a"/>
        </mask>
        <path d="M80.117 149.92 44.47 114.629c-9.526-9.43-14.775-21.97-14.775-35.308 0-13.337 5.249-25.876 14.775-35.31 9.829-9.727 22.738-14.591 35.648-14.591 12.91 0 25.82 4.864 35.649 14.592l21.401 21.19 20.998-20.788-21.403-21.189C121.632 8.248 101.514 0 80.117 0 58.72 0 38.601 8.25 23.472 23.226 8.337 38.211 0 58.132 0 79.322c0 21.19 8.337 41.112 23.472 56.094l56.794 56.225 92.162-91.532 71.315 70.599-35.679 35.32c-19.648 19.452-51.62 19.452-71.272 0l-21.265-21.052L94.53 205.76l21.266 21.053C131.41 242.272 151.919 250 172.428 250c20.51 0 41.02-7.728 56.633-23.186l56.678-56.109-92.312-91.384 35.652-35.294c19.664-19.464 51.658-19.466 71.323 0 9.522 9.428 14.768 21.963 14.768 35.294 0 13.334-5.246 25.869-14.768 35.297l-21.397 21.18 20.998 20.787 21.396-21.182c31.238-30.922 31.238-81.24 0-112.162-31.24-30.927-82.073-30.93-113.317 0" fill="#E6E6E6" mask="url(#xjw2mv16nb)"/>
    </g>
</svg>
