<svg width="100%" height="100%" viewBox="0 0 235 16" xmlns="http://www.w3.org/2000/svg" xmlns:xlink="http://www.w3.org/1999/xlink">
    <defs>
        <path  id="a0i591w2xa" d="M0 0h10.792v15.978H0z"/>
        <path id="rsuxgge0nc" d="M0 0h14.986v16H0z"/>
    </defs>
    <g fill="none" fill-rule="evenodd">
        <path fill="currentColor" d="M182.876 0v5.896H177V10.2h5.876V16h4.248v-5.8H193V5.897h-5.876V0zM197 3.347l4.356 4.647-4.227 4.509 3.15 3.36 4.227-4.51L208.862 16 212 12.653l-4.356-4.647 4.298-4.584-3.15-3.36-4.298 4.584L200.138 0zM235 6.065c0 5.37-9.803 9.723-9.803 9.723s-9.803-4.353-9.803-9.723c0-5.37 6.86-8.148 9.803-3.136C228.214-2.211 235 .696 235 6.065"/>
        <g fill='currentColor' transform="translate(0 .021)">
            <mask  id="fh2iv65zfb" fill="#fff">
                <use  xlink:href="#a0i591w2xa"/>
            </mask>
            <path d="M10.792 11.046c0 .964-.242 1.82-.727 2.567-.485.748-1.184 1.33-2.098 1.744-.913.414-1.985.622-3.214.622-1.026 0-1.886-.073-2.582-.218A9.52 9.52 0 0 1 0 15v-3.743c.794.412 1.62.732 2.477.962.857.231 1.644.346 2.36.346.619 0 1.072-.108 1.36-.324.288-.216.432-.495.432-.835a.923.923 0 0 0-.174-.558c-.116-.159-.302-.32-.559-.484-.256-.162-.94-.495-2.05-.999-1.004-.46-1.758-.907-2.26-1.34A4.103 4.103 0 0 1 .469 6.539C.226 5.978.105 5.316.105 4.55c0-1.431.517-2.548 1.55-3.349C2.688.401 4.107 0 5.912 0c1.595 0 3.222.372 4.88 1.116L9.517 4.36c-1.44-.666-2.684-1-3.731-1-.541 0-.935.096-1.18.287-.247.192-.37.43-.37.713 0 .305.157.577.47.818.312.242 1.16.68 2.545 1.318 1.327.603 2.25 1.25 2.766 1.94.517.692.775 1.562.775 2.61" fill="currentColor" mask="url(#fh2iv65zfb)"/>
        </g>
        <path  d="M26.273.245V9.6c0 2.035-.57 3.61-1.712 4.726S21.773 16 19.623 16c-2.1 0-3.715-.542-4.842-1.626-1.128-1.085-1.691-2.644-1.691-4.678V.245h4.183v9.122c0 1.098.204 1.896.612 2.392.407.495 1.008.744 1.801.744.85 0 1.467-.247 1.85-.74.383-.492.574-1.298.574-2.418v-9.1h4.163zM33.672 7.208h.758c.626 0 1.123-.177 1.492-.531.369-.355.553-.844.553-1.467 0-1.05-.576-1.574-1.728-1.574h-1.075v3.572zm7.018-2.02c0 1.737-.507 3.078-1.522 4.024-1.015.946-2.457 1.42-4.326 1.42h-1.17v5.156h-4.163V.245h5.333c1.945 0 3.407.429 4.384 1.286.976.858 1.464 2.077 1.464 3.658zM52.294 15.788h-9.148V.245h9.148v3.37h-4.985V6.06h4.616v3.37h-4.616v2.934h4.985zM59.154 6.974h.78c1.455 0 2.182-.648 2.182-1.945 0-1.07-.713-1.606-2.14-1.606h-.822v3.551zm0 3.158v5.656h-4.162V.245h5.048c4.187 0 6.28 1.53 6.28 4.592 0 1.8-.87 3.194-2.613 4.179l4.49 6.772h-4.722l-3.267-5.656h-1.054zM79.305 15.788h-4.1V.245h9.106v3.37h-5.006V6.58h4.616v3.37h-4.616zM94.67 9.43l-.664-2.551c-.154-.568-.342-1.3-.563-2.2-.222-.9-.367-1.546-.438-1.936-.063.361-.188.957-.374 1.786-.186.83-.6 2.463-1.238 4.901h3.277zm1.623 6.358-.759-2.913H90.53l-.78 2.913h-4.574L90.202.18h5.554l5.09 15.607h-4.553zM117.181 15.788h-5.46l-5.627-10.95H106c.133 1.722.2 3.037.2 3.944v7.006h-3.689V.245h5.438l5.607 10.801h.063c-.099-1.566-.148-2.824-.148-3.774V.245h3.71v15.543zM129.27 7.835c0-1.424-.28-2.48-.838-3.168-.559-.687-1.407-1.031-2.545-1.031h-1.213v8.707h.928c1.264 0 2.192-.37 2.782-1.11.59-.741.886-1.874.886-3.398m4.32-.149c0 2.594-.707 4.593-2.123 5.997-1.416 1.403-3.406 2.105-5.97 2.105h-4.985V.245h5.332c2.473 0 4.382.637 5.728 1.913 1.345 1.276 2.018 3.12 2.018 5.528" fill="currentColor"/>
        <g transform="translate(135.783)">
            <mask id="epyxmi89nd" fill="#fff">
                <use xlink:href="#rsuxgge0nc"/>
            </mask>
            <path d="M4.384 7.995c0 3.005 1.037 4.508 3.11 4.508 1.053 0 1.834-.365 2.344-1.095.51-.73.764-1.868.764-3.413 0-1.552-.258-2.698-.775-3.44-.516-.74-1.287-1.11-2.313-1.11-2.087 0-3.13 1.517-3.13 4.55m10.602 0c0 2.615-.636 4.603-1.907 5.964C11.807 15.319 9.945 16 7.493 16c-2.417 0-4.27-.684-5.559-2.052C.644 12.58 0 10.588 0 7.973c0-2.586.64-4.562 1.923-5.926C3.205.683 5.07 0 7.514 0c2.452 0 4.31.677 5.575 2.03 1.265 1.355 1.897 3.343 1.897 5.965" fill="currentColor" mask="url(#epyxmi89nd)"/>
        </g>
        <path d="m160.264 15.788-3.15-11.195h-.096c.148 1.907.221 3.388.221 4.444v6.75h-3.688V.246h5.543l3.215 11.035h.084L165.544.245h5.554v15.543h-3.826V8.973c0-.355.006-.748.016-1.18.01-.433.058-1.492.143-3.18h-.096l-3.109 11.175h-3.962z" fill="currentColor"/>
    </g>
</svg>
