<?xml version="1.0" encoding="UTF-8"?>
<svg id="Layer_1" xmlns="http://www.w3.org/2000/svg" viewBox="0 0 586.52 586.52">
<defs><style>.cls-1{fill:none;}.cls-2{fill:#34a853;}.cls-2,.cls-3,.cls-4,.cls-5{fill-rule:evenodd;}.cls-3{fill:#4285f4;}.cls-4{fill:#ea4335;}.cls-5{fill:#fbbc05;}</style></defs>
    <g id="logo_googleg_48dp">
    <path id="Shape" class="cls-3" d="m574.79,299.93c0-20.79-1.87-40.79-5.33-59.99h-276.2v113.44h157.83c-6.8,36.66-27.46,67.72-58.52,88.51v73.58h94.78c55.45-51.05,87.45-126.24,87.45-215.55h0Z"/>
    <path id="Shape-2" fill='#34a853' fill-rule='evenodd' d="m293.26,586.52c79.18,0,145.56-26.26,194.09-71.05l-94.78-73.58c-26.26,17.6-59.85,27.99-99.31,27.99-76.38,0-141.03-51.59-164.09-120.9H31.19v75.98c48.25,95.84,147.43,161.56,262.07,161.56h0Z"/>
    <path id="Shape-3" class="cls-5" d="m129.17,348.98c-5.87-17.6-9.2-36.39-9.2-55.72s3.33-38.12,9.2-55.72v-75.98H31.19C11.33,201.15,0,245.94,0,293.26s11.33,92.11,31.19,131.7l97.98-75.98h0Z"/>
    <path id="Shape-4" class="cls-4" d="m293.26,116.64c43.06,0,81.71,14.8,112.11,43.86l84.11-84.11C438.69,29.06,372.31,0,293.26,0,178.62,0,79.45,65.72,31.19,161.56l97.98,75.98c23.06-69.32,87.71-120.9,164.09-120.9h0Z"/>
    <path id="Shape-5" fill='none' d="m0,0h586.52v586.52H0V0Z"/>
    </g>
</svg>